<svg xmlns="http://www.w3.org/2000/svg" xmlns:xlink="http://www.w3.org/1999/xlink" width="100.0" height="100.0" viewBox="-75.78956612926677 -10.020310996742726 0.6444837893931208 0.759682641168645" preserveAspectRatio="xMinYMin meet"><g transform="matrix(1,0,0,-1,0,-19.280939352316807)"><path fill-rule="evenodd" fill="#66cc99" stroke="#555555" stroke-width="0.015193652823372901" opacity="0.6" d="M -75.31797010604475,-9.295288689326071 L -75.31710488392423,-9.297586845172532 L -75.31604648791898,-9.299406547690069 L -75.31537303628215,-9.30065156092951 L -75.31469932241646,-9.301609400474774 L -75.31392881111611,-9.302088700656896 L -75.3133303495971,-9.301537673150904 L -75.31169723519622,-9.30261722686015 L -75.30615235974136,-9.304294977423012 L -75.30464848475174,-9.3050389772132 L -75.30204673484673,-9.306884727071406 L -75.30106448524998,-9.307402353148234 L -75.29776760924966,-9.308607477017233 L -75.29447260989667,-9.31028322673086 L -75.28983985902022,-9.312123101588156 L -75.28862698442924,-9.31224222829104 L -75.2863086102684,-9.311890601627624 L -75.2851563586247,-9.31137697756975 L -75.28393560955703,-9.310464727127624 L -75.28272260912615,-9.309831976742544 L -75.28220311024171,-9.309199226549595 L -75.28202736045313,-9.30805072706903 L -75.28138673398348,-9.306730477602457 L -75.28156248370055,-9.305462851959419 L -75.28098236019497,-9.304486353125014 L -75.28017386006405,-9.306097602971477 L -75.27959373487306,-9.306613226815784 L -75.27774798404425,-9.307013727898493 L -75.27780860999633,-9.309773476985868 L -75.27711523520276,-9.311156227203924 L -75.27648235912312,-9.3137988531509 L -75.27555073511627,-9.314947227828043 L -75.27393360884412,-9.316097601816978 L -75.27306448398218,-9.317193352102095 L -75.27278123480181,-9.317880851892426 L -75.27197261018847,-9.318513728192386 L -75.27063673497003,-9.318859353046093 L -75.26936310921559,-9.31885935222249 L -75.26861523478374,-9.318400351860532 L -75.26768548488297,-9.318290977847653 L -75.26531248414989,-9.318980477115929 L -75.26329098403181,-9.319037102847233 L -75.26230660998112,-9.319732477110279 L -75.26178710908653,-9.320593602826591 L -75.26045898389629,-9.32191410297537 L -75.2592461099199,-9.322665977777206 L -75.25808785916968,-9.323064477110563 L -75.25611910895401,-9.323238353090801 L -75.25409760880586,-9.323068351984205 L -75.25021485905677,-9.32180472702862 L -75.24755860988529,-9.322095727212798 L -75.24643748485443,-9.3224257278207 L -75.24575198510132,-9.322665976876578 L -75.24066798386781,-9.32490822684042 L -75.24050198407201,-9.32497660208685 L -75.2372597351648,-9.326585976948309 L -75.2359842337778,-9.327040976956653 L -75.23378711019097,-9.328373103134311 L -75.22974410985302,-9.330265603041028 L -75.226158234026,-9.332628852789924 L -75.22216785915634,-9.33578710306108 L -75.21956635905468,-9.338494102147024 L -75.2180019840473,-9.34039447807362 L -75.21586523510524,-9.343779351870865 L -75.21453123508553,-9.345453102992735 L -75.21216472468012,-9.348120763753286 L -75.20932810907095,-9.351318352969884 L -75.20695510989407,-9.353615227935677 L -75.20516211010215,-9.355164101898026 L -75.20215623501099,-9.357353477922913 L -75.2003104839743,-9.358449226840605 L -75.19660160978003,-9.35988085316393 L -75.19516011003475,-9.36063285302572 L -75.19290235888997,-9.362244102178636 L -75.19209373494306,-9.36264260200005 L -75.18868161016542,-9.365402351796376 L -75.1849726101953,-9.367593727156589 L -75.18167985885947,-9.370869102850065 L -75.17936723501833,-9.372824227114108 L -75.17792573421747,-9.374380852140575 L -75.17651361007904,-9.37560747787552 L -75.17580660879213,-9.376789101980819 L -75.17588473404857,-9.378679726881103 L -75.17943548397147,-9.395634602793507 L -75.18314448413241,-9.407708977009406 L -75.1839609850594,-9.41195897717057 L -75.18460160999712,-9.417476602854833 L -75.1869727339589,-9.425632851834393 L -75.19109373402421,-9.43729885294539 L -75.19451173489051,-9.444703102996982 L -75.19659360997343,-9.449939476891984 L -75.19792973499995,-9.452751976780803 L -75.20158398488337,-9.462056601901338 L -75.20500198504806,-9.469816351872169 L -75.20667973505584,-9.472798853194263 L -75.20683598379895,-9.4735801021763 L -75.2068359841013,-9.474447226986229 L -75.20659960977974,-9.475548852223028 L -75.20596873518195,-9.476652353101258 L -75.20596873483112,-9.477517601913064 L -75.20612698407149,-9.479093603059539 L -75.20633786011939,-9.480732477953609 L -75.20691598519164,-9.484005853137944 L -75.20854098398303,-9.488716852918799 L -75.20854098480078,-9.490154352830473 L -75.20779485889199,-9.49193747693954 L -75.20640623490311,-9.494066352219079 L -75.20553710915271,-9.496189477146402 L -75.20530660914335,-9.497519477194828 L -75.20536723514675,-9.500042977164242 L -75.20503323488936,-9.504339852076043 L -75.20426948392367,-9.507087853184544 L -75.20127735983812,-9.511201227912068 L -75.20000386022781,-9.51367772716884 L -75.19913473392899,-9.515687478194593 L -75.19899998492298,-9.517427727098607 L -75.1989999851395,-9.519236352793314 L -75.19905273482743,-9.522513727971045 L -75.19797460903715,-9.525568352124537 L -75.19750973410777,-9.529232478087692 L -75.19659360985185,-9.53121872698398 L -75.19443548410442,-9.533203103186622 L -75.19213085881688,-9.534121102877293 L -75.18875198418357,-9.534581977019968 L -75.18643948386506,-9.535652352209524 L -75.18351760983256,-9.538095728053577 L -75.18044335995273,-9.538861351936873 L -75.17852723516307,-9.53995697702453 L -75.17688860993508,-9.54150785193417 L -75.17600198381751,-9.54252535290209 L -75.17480660900958,-9.543632852029532 L -75.17352148391444,-9.544917978033538 L -75.173218733991,-9.546195353148619 L -75.17999223413648,-9.552755852196299 L -75.1822968599235,-9.556419977064422 L -75.18338285977404,-9.559931602092377 L -75.18724011009328,-9.585427726952616 L -75.18908786007069,-9.592603477820774 L -75.19039060880829,-9.595681601891613 L -75.19096286020743,-9.596632852149924 L -75.19353323494937,-9.59891797795592 L -75.19743548407143,-9.601583977994665 L -75.19924410995401,-9.603677728073478 L -75.20067385988443,-9.606154352809085 L -75.20143360996087,-9.607771477000824 L -75.20238673386291,-9.60881835287222 L -75.2050527347858,-9.609960851897313 L -75.20847848494634,-9.610722602783028 L -75.21028710979664,-9.611675727786405 L -75.21257223488152,-9.612722601874566 L -75.21552348416702,-9.615005853111143 L -75.21771285920863,-9.615863228100466 L -75.22187111011863,-9.618847603121253 L -75.23419135979907,-9.62860935316263 L -75.23463673377455,-9.629753852047486 L -75.23518748483019,-9.630777353220083 L -75.23652735908092,-9.632273478031323 L -75.23967573410738,-9.635818352213846 L -75.24243361003971,-9.638574227151992 L -75.2444022351147,-9.64054297795525 L -75.24629298498576,-9.641802726840979 L -75.24789448494153,-9.643564477148061 L -75.26144335922277,-9.65408985314258 L -75.27930473392661,-9.67239847695987 L -75.28793360883787,-9.680177728062631 L -75.28823823413148,-9.680331976838204 L -75.29363286020288,-9.685670103143138 L -75.2971503589057,-9.68879297817017 L -75.29998636014335,-9.691488228167486 L -75.30324998406797,-9.695742227981839 L -75.30473823498636,-9.697728478013858 L -75.30872261020085,-9.700316226779421 L -75.32629486011592,-9.723353478217518 L -75.32875786018633,-9.72732422697652 L -75.32968161005624,-9.729611353038194 L -75.33107810920109,-9.736175727957288 L -75.33108598486422,-9.743962852940342 L -75.3306269839544,-9.747781226975349 L -75.32939848519595,-9.751753852985303 L -75.32828710997478,-9.753955103072656 L -75.3277267338919,-9.755132852098257 L -75.32701760912431,-9.756314477810292 L -75.32457598521671,-9.75977935288995 L -75.32333786004773,-9.760902351974039 L -75.3144843599402,-9.771003853056698 L -75.31063861013075,-9.774671853028451 L -75.31059811012011,-9.775015602840142 L -75.31036961002894,-9.775525226833395 L -75.3099113588807,-9.776104601887482 L -75.30464685988397,-9.781847103100745 L -75.30306961015356,-9.78362210278425 L -75.3015653588925,-9.785810351830207 L -75.29987885993188,-9.788590852832215 L -75.29869360882827,-9.791371476929953 L -75.2978274851356,-9.793604978058227 L -75.2976104850456,-9.794262102780692 L -75.29702735980004,-9.797296978111206 L -75.29684485990714,-9.799776478050433 L -75.29620773493508,-9.801846977963237 L -75.29461510994275,-9.805297727940626 L -75.29413723521441,-9.80641260211263 L -75.29397798413402,-9.807899102208353 L -75.29406998505561,-9.81038022791654 L -75.29413710992816,-9.812022976982007 L -75.29371711011817,-9.814186976887129 L -75.29329523495892,-9.81508935282369 L -75.2926349851545,-9.816171477773707 L -75.2920911099713,-9.8169099778072 L -75.29140961002486,-9.817958353193433 L -75.29070073512855,-9.81870897807363 L -75.28952848482243,-9.820349977153967 L -75.28848048388858,-9.82174747685076 L -75.28622686015348,-9.824861226840767 L -75.28452811010743,-9.827568728137521 L -75.2826168590953,-9.83048872821729 L -75.28059948521934,-9.834788978097833 L -75.27921898499596,-9.838239727906512 L -75.27879435985193,-9.841265853078369 L -75.27898735995848,-9.843581228089022 L -75.27846048508178,-9.84559097797711 L -75.27804448519782,-9.84651985289446 L -75.277146358778,-9.847821977802084 L -75.2767089851593,-9.848656227978779 L -75.27582160978608,-9.84976410315278 L -75.27565148391722,-9.85063310296755 L -75.27573661009535,-9.85206985314045 L -75.27633823508313,-9.854354978030528 L -75.2770004851223,-9.855919351885518 L -75.27820148478185,-9.857122477850453 L -75.27988510990622,-9.858444852067407 L -75.28039498501522,-9.859055603158424 L -75.28053398414045,-9.859197851837223 L -75.28097485913963,-9.85964835289974 L -75.2818516099897,-9.860390102905512 L -75.2827113598492,-9.860980228167932 L -75.28308223483208,-9.861452227036295 L -75.28328010910735,-9.861999476788299 L -75.28330148502164,-9.862531352935434 L -75.28289686012033,-9.863020228035452 L -75.28255960912901,-9.863348977920793 L -75.2823742351136,-9.864006477931412 L -75.28240798491822,-9.864731352784645 L -75.28286736016344,-9.865330728190543 L -75.28372298409442,-9.865742977967102 L -75.28485248416462,-9.866063228044027 L -75.28581348385546,-9.866316103195516 L -75.28658823479486,-9.866483853153113 L -75.28711160889145,-9.867024227074523 L -75.28738135893104,-9.86764810301213 L -75.2878028592084,-9.869418227947563 L -75.28793773499223,-9.870278103201201 L -75.28822436008011,-9.870699603160062 L -75.28969285889417,-9.8707958525589 L -75.29427273463745,-9.871095852667509 L -75.29642098397909,-9.870609852650034 L -75.29816010999048,-9.871350478259671 L -75.30072711013804,-9.87244385311385 L -75.30264086029058,-9.87324135283427 L -75.30359773454632,-9.873241353103026 L -75.3048264854433,-9.871787227781908 L -75.30609173539113,-9.871870101873014 L -75.31165173520435,-9.873958977956079 L -75.31715398387632,-9.8761119778776 L -75.32122073492371,-9.876909477778497 L -75.32520785871282,-9.876909477786853 L -75.33031135891332,-9.87555385167866 L -75.33868123504931,-9.874005227078896 L -75.34591348387505,-9.874478977680326 L -75.3473947337634,-9.874576102736057 L -75.34827310920116,-9.874575853435033 L -75.35019173525853,-9.87422410280351 L -75.35361935862846,-9.873403727666414 L -75.35667610883564,-9.872548353371826 L -75.3597678587384,-9.871802227810463 L -75.36394936009009,-9.871216853222393 L -75.36759648536662,-9.870960728039279 L -75.36935598512645,-9.870832602448615 L -75.37178748460849,-9.871152727750996 L -75.37354711029434,-9.871888478185326 L -75.37617060984354,-9.872240477222704 L -75.37818598464753,-9.872336352973264 L -75.3797214846266,-9.872432353411057 L -75.38125235997052,-9.872618603033288 L -75.38326011006365,-9.872921353266236 L -75.38957060880614,-9.87428860284433 L -75.39575498515558,-9.876528228039604 L -75.39805323545329,-9.877679103240894 L -75.3995958597389,-9.878455603320731 L -75.40176185911275,-9.87992222786994 L -75.40320536031157,-9.881285977619768 L -75.40365185985263,-9.881774102088343 L -75.40590273418383,-9.884651852727927 L -75.4069273597745,-9.885858102604061 L -75.40712186031277,-9.886003353192791 L -75.40723660893207,-9.886082602655506 L -75.40948273466432,-9.887151853115427 L -75.41024723434549,-9.887328477394192 L -75.41076123363155,-9.887585477797472 L -75.4110596096462,-9.888005728444796 L -75.41118161010172,-9.88842610302828 L -75.41111385975114,-9.888900728124213 L -75.41108673527731,-9.889931228379226 L -75.41122223542993,-9.890758351601676 L -75.41131723530492,-9.891666853392792 L -75.41137148386235,-9.892466853002816 L -75.41134598514765,-9.893032727893797 L -75.41114548514474,-9.893918977161093 L -75.41038811043433,-9.894645977703703 L -75.40984285862646,-9.894918601849781 L -75.40932398543612,-9.895504102561176 L -75.40933748476363,-9.89629060265787 L -75.40951386008987,-9.897076977609231 L -75.40953823510546,-9.897433228066632 L -75.40990423523846,-9.899164102749864 L -75.4099639845656,-9.90061410280589 L -75.40960048527847,-9.90200760295511 L -75.40896423470821,-9.902825602670362 L -75.40791385968117,-9.903178727858858 L -75.40712735866333,-9.90328722800291 L -75.40609686016427,-9.903422727673785 L -75.40467311024338,-9.903829602693747 L -75.40394173478433,-9.904059977609336 L -75.40297298496995,-9.9044897277617 L -75.40177585993945,-9.905267102802213 L -75.39856086042477,-9.90696435257911 L -75.39769961035961,-9.907772977635545 L -75.39662335880439,-9.908956478040523 L -75.39635386016835,-9.909548351863805 L -75.39576223367652,-9.911485853109014 L -75.39554723500993,-9.912776853437151 L -75.39565460978434,-9.913960477365663 L -75.3961937337802,-9.914876477563041 L -75.3972152346812,-9.916220227828319 L -75.39787023360287,-9.916801728432063 L -75.39824048492227,-9.917426476959918 L -75.39854123542688,-9.918120603137424 L -75.39879573472376,-9.918907227779812 L -75.3988419853768,-9.918953478369303 L -75.39923360967936,-9.919555853219322 L -75.39974435994867,-9.920341727793812 L -75.40136398380565,-9.921706853079058 L -75.40232848494759,-9.9226244769618 L -75.4028128599154,-9.923862728340907 L -75.40361960993107,-9.925098978232711 L -75.40426210860898,-9.926030728050819 L -75.40443210973808,-9.92651385307488 L -75.40443773519479,-9.92664672843199 L -75.4044806099347,-9.927546228241056 L -75.40423823381838,-9.928515602782568 L -75.40441998486176,-9.929424477714235 L -75.40478361001448,-9.930212103389579 L -75.40584385895062,-9.930636227842683 L -75.40729785958649,-9.930696852827339 L -75.40975423457525,-9.931073728044225 L -75.41093786034173,-9.9316108530424 L -75.41212148493906,-9.932848978082063 L -75.41341248478682,-9.936024853352706 L -75.41443586031193,-9.93785297811877 L -75.41615848485645,-9.939575602551997 L -75.41820348468622,-9.941298352780166 L -75.41949573464126,-9.942275852910257 L -75.4199103604297,-9.942634477018544 L -75.42029485980646,-9.94296685273622 L -75.42078936017896,-9.94325160310808 L -75.42144210921509,-9.943435103401157 L -75.42223861002577,-9.943558103232192 L -75.42291635964813,-9.943565977998162 L -75.42445735920887,-9.943106853218922 L -75.42553923537434,-9.942360852879347 L -75.42630336029907,-9.94206985295051 L -75.42704398466981,-9.941958602850264 L -75.4281507341862,-9.941880352603619 L -75.42972786003861,-9.94144047758499 L -75.43080135978306,-9.941014728040727 L -75.43161586045062,-9.94070010263647 L -75.43226361041235,-9.940366977872316 L -75.43299948482411,-9.93965335285651 L -75.43355935998517,-9.93920085336913 L -75.43483648536227,-9.938460353359801 L -75.43579885976072,-9.937942103050034 L -75.43665048499793,-9.937682977936845 L -75.43732661018709,-9.937538103085785 L -75.43794611038135,-9.93738685322927 L -75.43844585896272,-9.93720172785379 L -75.43972048483874,-9.936674478198995 L -75.44076986011999,-9.936366728412906 L -75.44174061016753,-9.936257728423584 L -75.44270310966374,-9.936442852587959 L -75.44379523478216,-9.936850103308018 L -75.44466523504451,-9.937257228420322 L -75.44555048472455,-9.937889478195416 L -75.44699698505241,-9.939228853284305 L -75.44862436035669,-9.940931977841615 L -75.44955173543724,-9.941551603435187 L -75.44971836015242,-9.942310477574381 L -75.45006998544602,-9.943032352965133 L -75.45055123464925,-9.943576228112533 L -75.45076736031268,-9.94373247832715 L -75.45080273524076,-9.943757853412933 L -75.45089523478225,-9.94505735333081 L -75.45127373533575,-9.946533477816956 L -75.4517657346359,-9.948387977332402 L -75.45225773496037,-9.949977603296418 L -75.45237123475147,-9.951756352749499 L -75.45244698384823,-9.95349735312675 L -75.45309036032484,-9.954897728302512 L -75.45369598516152,-9.955768227760245 L -75.45502060999303,-9.956222352792508 L -75.4560803597418,-9.956222352893917 L -75.45713998537838,-9.956903602763077 L -75.45907023456624,-9.957584852709374 L -75.46088248539837,-9.956803353142902 L -75.46230860971542,-9.957284477807207 L -75.46210011020935,-9.959169603034752 L -75.46190010997071,-9.960836352991066 L -75.46243348483972,-9.961636228046643 L -75.46350011005666,-9.963369603253113 L -75.46436673490888,-9.965969477827684 L -75.46436673414615,-9.967169477963466 L -75.46470011026003,-9.96950285314881 L -75.46576673376478,-9.971102728302867 L -75.46623335882992,-9.973569352664867 L -75.46610010958585,-9.975902727977939 L -75.46590010995192,-9.977835977676932 L -75.4668333595601,-9.979569352798478 L -75.4680999848166,-9.981169227901034 L -75.46796673467662,-9.982635853000772 L -75.46769998513514,-9.985502478349986 L -75.46709998527325,-9.9883691020014 L -75.46777598518912,-9.989058977825607 L -75.46964536030356,-9.989837852925234 L -75.47151473492283,-9.990694727722143 L -75.47322823474343,-9.991940977830382 L -75.47455248474012,-9.992174602625369 L -75.47595448471213,-9.990772603315406 L -75.47657760973794,-9.989526352637824 L -75.47774598536569,-9.988046353387972 L -75.4782912347656,-9.986722228037479 L -75.47945948457635,-9.985242352847422 L -75.4803163601722,-9.98508660310057 L -75.48195198506824,-9.983918228351342 L -75.48249723497719,-9.983061353335415 L -75.484522485154,-9.982048853255549 L -75.48608023460395,-9.982048853402262 L -75.48740435991613,-9.982048853220192 L -75.48950748496452,-9.981815102661301 L -75.49075373462728,-9.981425728310853 L -75.49129898541742,-9.980724727966503 L -75.49207785957458,-9.980023602859092 L -75.49254523417494,-9.97994572822222 L -75.49371348524107,-9.979945728246832 L -75.49511560992966,-9.980023602713857 L -75.49620598510171,-9.980101603325465 L -75.49753023384773,-9.980101602907268 L -75.49885436016893,-9.979789978309498 L -75.50196998412343,-9.979166852613048 L -75.50469610893845,-9.979088978123343 L -75.50625398489291,-9.9790889776462 L -75.50801998544216,-9.979139978156695 L -75.50837360925715,-9.978627602678387 L -75.50831510879806,-9.977662477783213 L -75.50858448507341,-9.976916478248768 L -75.50897823503539,-9.977372352733767 L -75.5092199852275,-9.977969977735995 L -75.50972873506095,-9.978488228344077 L -75.51051173460081,-9.978843727769345 L -75.51148573491048,-9.979154602945528 L -75.51221111021556,-9.979506852858776 L -75.51351673429292,-9.980107852747551 L -75.51471861021423,-9.980605228391028 L -75.51554760959579,-9.981102602797193 L -75.51701898541563,-9.981371977416416 L -75.51894623387494,-9.981662102737346 L -75.52054198519073,-9.981599977760254 L -75.52155748493783,-9.981496353016269 L -75.52253148529621,-9.981206227704774 L -75.52381623530039,-9.9809161027448 L -75.52450010918596,-9.98064672812211 L -75.52908010985163,-9.981061227827809 L -75.53009548531764,-9.980957602813419 L -75.53111098482958,-9.980646728114209 L -75.53220935957046,-9.98070885265821 L -75.53297611039329,-9.980868352815719 L -75.53410123528619,-9.980868353360904 L -75.53555623534112,-9.98032272769899 L -75.53710223527628,-9.979958977651847 L -75.53864811002649,-9.980140853296916 L -75.54164911042699,-9.981050227676576 L -75.5439226088464,-9.981868727928429 L -75.54482585964507,-9.983349228135296 L -75.54601410985396,-9.984324103313497 L -75.54719636008059,-9.984687853143953 L -75.54837860986044,-9.98441497805527 L -75.54955598458685,-9.982998353363143 L -75.55058160982668,-9.982314602768781 L -75.5512422353138,-9.981693477865463 L -75.55216398496196,-9.980135727597485 L -75.55335610980427,-9.978286603187712 L -75.55460623458879,-9.976752478044773 L -75.55549460962976,-9.976024228243148 L -75.55700560972866,-9.975196853225668 L -75.55797873459807,-9.974418227987542 L -75.55892760973177,-9.973153102659467 L -75.55962098473145,-9.972629353395178 L -75.56014211024382,-9.97187222828802 L -75.56073973535649,-9.970112727728178 L -75.56020048530877,-9.9676823525798 L -75.56029148475864,-9.96604547770039 L -75.56038236002308,-9.964135728096267 L -75.56183748538336,-9.96322635284605 L -75.5656568603763,-9.962498852649503 L -75.56902161043342,-9.961316602561453 L -75.5720224848053,-9.960770977755146 L -75.57629660986146,-9.958952228073542 L -75.57911573532618,-9.959134102772396 L -75.58054211012188,-9.95941610270512 L -75.58197535966644,-9.958523977672428 L -75.58448110997813,-9.958133853423192 L -75.58648173539945,-9.9573153531436 L -75.58848235992087,-9.956405976672443 L -75.59039211010992,-9.955587478346445 L -75.5913923600753,-9.95467810339943 L -75.5922108600393,-9.952768477954976 L -75.59227336002749,-9.951962353126419 L -75.59291386001468,-9.950324602927651 L -75.59286398521874,-9.949603103203685 L -75.59257048488985,-9.948447978083152 L -75.59239373516067,-9.947408103157784 L -75.59233411011763,-9.946599227130037 L -75.59297360997436,-9.945731353171027 L -75.59343886003762,-9.945152727972982 L -75.59431198516182,-9.944515478065625 L -75.59530248420816,-9.944340353046698 L -75.59617673499974,-9.94433885289925 L -75.59681848481108,-9.944684352837669 L -75.5983934848523,-9.945374978173447 L -75.59955923505998,-9.945372978190164 L -75.60060823519802,-9.945313228111331 L -75.60183148513516,-9.944906602985668 L -75.6030547351861,-9.94455760280357 L -75.6042788600522,-9.944613227958598 L -75.60544485991232,-9.944784478068527 L -75.60631960986916,-9.94501397800775 L -75.60818448506814,-9.9448951030015 L -75.60975773515781,-9.944661102974408 L -75.61127386011128,-9.945062853038621 L -75.61261473492596,-9.945233727871312 L -75.61401298494218,-9.944884477909113 L -75.61552798503163,-9.944708353116596 L -75.61710035980906,-9.944011977839239 L -75.61826510986765,-9.943489728209727 L -75.61937198502488,-9.943198852919465 L -75.6204208602091,-9.943081352840068 L -75.6213522348794,-9.942443978111953 L -75.62240048516497,-9.941979727906471 L -75.62344798487959,-9.941168853171177 L -75.6243803599126,-9.941051477845008 L -75.62513836001483,-9.941223478054894 L -75.62624648508114,-9.94162585315189 L -75.62700548507519,-9.942260102916862 L -75.6275904848062,-9.94341460279702 L -75.62829185999777,-9.94445347806709 L -75.62911010987182,-9.945607603223777 L -75.62992785983994,-9.94653060297702 L -75.63097736011406,-9.946759727941185 L -75.63214335979967,-9.946873102965924 L -75.6344163600042,-9.946868851979445 L -75.63569873477462,-9.94692422679492 L -75.63709786015482,-9.94703710309733 L -75.63878673510033,-9.946340478176694 L -75.6398352348811,-9.945991727022601 L -75.641408609888,-9.945873103169902 L -75.64298286002634,-9.946159102984836 L -75.64395223521063,-9.946561478208196 L -75.64407985985417,-9.946506353189932 L -75.64508298511856,-9.947079603055215 L -75.6461331101425,-9.947597602865642 L -75.646833610018,-9.94817410193042 L -75.64770798507357,-9.948230227865508 L -75.64922348490478,-9.948227228193616 L -75.65097073518012,-9.947588227893903 L -75.65312573508305,-9.946832853167336 L -75.65580448496434,-9.945614103206026 L -75.65813373492864,-9.94456947808851 L -75.65941448491242,-9.94381572815837 L -75.6610442350484,-9.942714602222622 L -75.6625584850126,-9.94213372799868 L -75.66413148498935,-9.941841727966164 L -75.66453911004163,-9.941667601910012 L -75.66541086011705,-9.940394603148604 L -75.6671593600538,-9.94039110317948 L -75.66914098500166,-9.940387227938004 L -75.67106385979503,-9.940152228092927 L -75.67275398515989,-9.940148853097014 L -75.67327748494324,-9.939627728132848 L -75.67373923481051,-9.937430978190093 L -75.67397098521116,-9.936737102896075 L -75.67449373491723,-9.935869353138798 L -75.67577298479387,-9.934422102859855 L -75.67682035985518,-9.933610977790636 L -75.67780886004152,-9.932453353111214 L -75.67809723509993,-9.931008227791551 L -75.67867735987608,-9.929677977858148 L -75.67902485986934,-9.92863722792481 L -75.67890585986083,-9.927423977878505 L -75.67931211021875,-9.926614102841427 L -75.68012548512803,-9.925399103217671 L -75.68041536007422,-9.924647228170386 L -75.68035523508718,-9.92372285320323 L -75.68052873482878,-9.923086852954782 L -75.68140061010126,-9.921987228045055 L -75.68158273479429,-9.921515103202182 L -75.68165623504422,-9.92144535306221 L -75.68175198485199,-9.921339227906628 L -75.68186460983412,-9.920888352997679 L -75.68296948496072,-9.919730477884002 L -75.68448185992406,-9.918282852897562 L -75.68535436003754,-9.917471978221784 L -75.68710110987678,-9.91671722800561 L -75.68849773485096,-9.915732103180062 L -75.69082673522013,-9.914687228026253 L -75.69315573508464,-9.913700103142844 L -75.69368011008095,-9.913641227946925 L -75.69376536013476,-9.913688227934813 L -75.69422073520138,-9.913494227894262 L -75.69522260993631,-9.913212853001085 L -75.69564848506911,-9.91325397806969 L -75.69567848484218,-9.91326485197709 L -75.69571910989958,-9.913232477996246 L -75.69746735983449,-9.913228853154123 L -75.69898373510796,-9.913745727962407 L -75.70027148498258,-9.91440635282379 L -75.70044223480329,-9.914493977985671 L -75.70172623492897,-9.915357978127531 L -75.70312661016555,-9.916163978043471 L -75.70487523502021,-9.916275978073998 L -75.7060413601518,-9.916504602792088 L -75.70755598479155,-9.916270226795746 L -75.70930335996127,-9.915804352939915 L -75.71040786005534,-9.91447297807838 L -75.71157111012343,-9.91343035321023 L -75.71291073508706,-9.913080853015856 L -75.71448323492461,-9.912615227803258 L -75.71564736006462,-9.911919353085295 L -75.71686873514182,-9.910818852980583 L -75.71791598514778,-9.910007727914262 L -75.71966286001629,-9.90931047811415 L -75.72088448510175,-9.908325602942114 L -75.7223958601686,-9.906588852775144 L -75.72379223492669,-9.905545727901028 L -75.72483985999133,-9.904907853186387 L -75.7256546097928,-9.904386103047386 L -75.72681910990326,-9.903921227947535 L -75.72850498477266,-9.902068602847748 L -75.72955123519398,-9.900852852993182 L -75.73042273513494,-9.899637477795693 L -75.73088623503952,-9.898423102789195 L -75.7312343601107,-9.897728853059562 L -75.73204773513982,-9.896629228138067 L -75.73321085996656,-9.895528851948256 L -75.73478110998428,-9.894138602935072 L -75.73605998502512,-9.89269122797208 L -75.73681511004594,-9.891591727969228 L -75.73739573503872,-9.890665852844052 L -75.73803261003349,-9.888815478168965 L -75.73826135993556,-9.886850353089244 L -75.7386674848313,-9.886040478220195 L -75.73959673490145,-9.884651602820554 L -75.73967735983473,-9.884556602824375 L -75.74023598489208,-9.883898978221737 L -75.7412844849934,-9.883723353149605 L -75.74303273517154,-9.883719477938712 L -75.74443135999718,-9.883774227970093 L -75.74559710986154,-9.883887228011758 L -75.74746173477627,-9.883883103193511 L -75.74845298514634,-9.884111977970292 L -75.7496777349869,-9.884571478038708 L -75.75061011013554,-9.884569476957552 L -75.75258911001544,-9.883582727785551 L -75.75270923587118,-9.883516852864489 L -75.75305073505905,-9.883101601838746 L -75.75308011002426,-9.882644478095187 L -75.75299410982939,-9.881873102089287 L -75.75242386005834,-9.881130977826047 L -75.75228123509731,-9.880789103109862 L -75.75213861012418,-9.879818352963468 L -75.75196673493826,-9.87847660290754 L -75.75179486001304,-9.877333978174818 L -75.75170898492291,-9.87676372781948 L -75.75182423499086,-9.876220727847738 L -75.75222260994042,-9.875964852856498 L -75.752509735091,-9.875621102977334 L -75.75256635983811,-9.875136727972347 L -75.75267773502259,-9.874236228135771 L -75.75285736013006,-9.87366410303548 L -75.7528573599568,-9.872734352886823 L -75.75282036001323,-9.87176760313423 L -75.75282035987976,-9.87080072781697 L -75.75292773491458,-9.87019135289421 L -75.75307223511686,-9.86954685182559 L -75.75303511006462,-9.868794978117762 L -75.75332223502642,-9.868509726918717 L -75.75410935992568,-9.868257853132661 L -75.75478910989654,-9.867757852959471 L -75.75543361011682,-9.867113227952302 L -75.75572073495346,-9.866826228156413 L -75.75582810978818,-9.86571685284133 L -75.75582810985782,-9.864070353225998 L -75.75600798613056,-9.863568351985407 L -75.75661523514924,-9.863390603202106 L -75.75738673517895,-9.863158227960469 L -75.758089860121,-9.863001977850729 L -75.75875198495851,-9.862845727929539 L -75.75910160993931,-9.862650351898651 L -75.75937498516845,-9.862144476795663 L -75.75945310996974,-9.861404352827492 L -75.75949223505984,-9.860779353024327 L -75.75921873506474,-9.860273476989448 L -75.75917973499912,-9.859882853001807 L -75.75945311020342,-9.859611353066953 L -75.7599198598885,-9.859220728107005 L -75.76054486008678,-9.858910102937386 L -75.76089448599288,-9.858402352890096 L -75.7611542352114,-9.857873103197562 L -75.76140823486566,-9.85644335283979 L -75.76131248508227,-9.855705102992772 L -75.7613339852187,-9.855158228004825 L -75.76142973514942,-9.854345728104477 L -75.76137698620545,-9.853787102812134 L -75.76134373484342,-9.852923852839126 L -75.7612187348538,-9.852271478040677 L -75.76068161014393,-9.851787228221212 L -75.76022848513759,-9.851470727800859 L -75.75983785978156,-9.85126947679015 L -75.75940623498553,-9.850912101981748 L -75.75897473487925,-9.850291103002121 L -75.75862710982926,-9.849406227136058 L -75.75841598486596,-9.84887885302669 L -75.75814260987079,-9.848183603202756 L -75.75790035982152,-9.847675726846035 L -75.75728911015614,-9.846833978205837 L -75.75662498485383,-9.845949227815481 L -75.75633010995301,-9.845160227944689 L -75.75604485993773,-9.844265603086058 L -75.75574023498234,-9.843642602927105 L -75.75525585987799,-9.842937478105114 L -75.7548769849056,-9.842515478150403 L -75.7545391101711,-9.8420624779327 L -75.75435935990521,-9.841451228099118 L -75.75420110994321,-9.840818353207283 L -75.75422260980804,-9.839849603150128 L -75.75416985980979,-9.839249977092152 L -75.75430660978475,-9.838005852985646 L -75.75457035995385,-9.837036978119158 L -75.7551718600298,-9.835857477968545 L -75.7554667351273,-9.834855477835731 L -75.75550785998246,-9.83399222796885 L -75.75533011004859,-9.833675726958916 L -75.75487698496795,-9.83331835312913 L -75.75438086004368,-9.832980477819092 L -75.75410735991574,-9.832517602878568 L -75.75369536010538,-9.831105477804442 L -75.7534003600299,-9.830484353053635 L -75.75292773513058,-9.829968726804111 L -75.7525683600482,-9.829177727809054 L -75.75221098517244,-9.828535102919886 L -75.75197848498277,-9.827996103051817 L -75.75152535981783,-9.827007852974532 L -75.75125186000747,-9.82618547790372 L -75.75110548481416,-9.82485935286951 L -75.75115423490666,-9.824052728219385 L -75.75122848489104,-9.822876977157534 L -75.75158598490702,-9.821703102886943 L -75.75209173521029,-9.8207069781609 L -75.75240423522166,-9.819292977123553 L -75.75252348477261,-9.818898478150174 L -75.75258598480582,-9.818421852825168 L -75.75269335977652,-9.81788472814469 L -75.75279098496401,-9.817537103091581 L -75.75292573503282,-9.816982477809518 L -75.75293361019686,-9.816576228190513 L -75.75292186003566,-9.816113227876542 L -75.752882860157,-9.815685602203416 L -75.75279885982275,-9.8155253531408 L -75.75262886021494,-9.815417977936931 L -75.7524551101717,-9.815337852919754 L -75.75231048486546,-9.815232478203086 L -75.7521757348295,-9.815050727829657 L -75.75204685982465,-9.814863228072397 L -75.75191211021593,-9.81388085295589 L -75.75183786001583,-9.813048851801796 L -75.75186323482819,-9.812869103074945 L -75.75183010994044,-9.812716728207818 L -75.75169135980633,-9.81259185189657 L -75.75156835986718,-9.812544977801565 L -75.75126948605396,-9.81255072815162 L -75.75107610981752,-9.812558602869387 L -75.75083398482758,-9.812585977986771 L -75.75055860994166,-9.812523478180822 L -75.75040623502952,-9.812406228124928 L -75.7500683600964,-9.812183603220092 L -75.74966798505113,-9.811933603006707 L -75.7492363598297,-9.811828102949107 L -75.7489374848667,-9.811546852913409 L -75.74862698517353,-9.811130852779968 L -75.74815036002315,-9.810580102033327 L -75.74737685997462,-9.809908227850542 L -75.74678123495528,-9.809523477780374 L -75.74623236001315,-9.808691353020606 L -75.74552923514159,-9.808265601994606 L -75.74497660987595,-9.807796852994898 L -75.74480473512284,-9.807603478156693 L -75.74450585990468,-9.80745510200802 L -75.74420698517906,-9.80741210293786 L -75.7440369849212,-9.8072422279904 L -75.74397261016935,-9.806773478065395 L -75.74397260994323,-9.806261726913874 L -75.74356836010179,-9.805706977998625 L -75.7427578597975,-9.805300726833934 L -75.7416562350524,-9.804728477825392 L -75.74044535981926,-9.804144478095509 L -75.73954673503135,-9.803730477787212 L -75.73859173494577,-9.80336135301468 L -75.73759561007313,-9.803175727826215 L -75.73649798515049,-9.802804727190846 L -75.73557223490286,-9.80240622795867 L -75.7342773599637,-9.802091853136346 L -75.73254498498324,-9.801923852880918 L -75.73151173489975,-9.801908227167758 L -75.73009173506563,-9.802343728214169 L -75.72892773482266,-9.803435601959052 L -75.72779885983778,-9.804417977917637 L -75.72681635990676,-9.805474728185061 L -75.72597848484378,-9.806529352826146 L -75.72504686018385,-9.807328103078873 L -75.72466986011608,-9.80742772807912 L -75.72446873502525,-9.807402351880626 L -75.72419335992834,-9.807249977993706 L -75.72383986014546,-9.806896477829639 L -75.72284173501333,-9.806031226884272 L -75.72216986006299,-9.805718728111628 L -75.72120111014544,-9.805374977857468 L -75.7203516100397,-9.804853478008852 L -75.71956248507934,-9.804347602790926 L -75.71891985990607,-9.804123102937751 L -75.71795323515562,-9.803974602809035 L -75.7175547350019,-9.803673851824442 L -75.71701173504198,-9.803289102884037 L -75.7165507350652,-9.802751978054346 L -75.71628323515517,-9.802304727949661 L -75.71632611011529,-9.80184185283008 L -75.7165058597995,-9.800783228025011 L -75.71673048494057,-9.800039102845517 L -75.71704298521075,-9.799337852910128 L -75.71704298519461,-9.798800728064577 L -75.71690823505128,-9.798205227849053 L -75.71668548484485,-9.7974746028965 L -75.71659573509947,-9.796937477773895 L -75.71678911000964,-9.796296852850674 L -75.71718548479578,-9.795435602820135 L -75.71742973484663,-9.794687477914863 L -75.71749023487428,-9.793941352917955 L -75.71726561015271,-9.793197228182976 L -75.716744109979,-9.792585978115255 L -75.71637110992049,-9.79224222802327 L -75.71571673483237,-9.79191410180556 L -75.71511910977756,-9.791646478099665 L -75.71440023487253,-9.79128122800256 L -75.71411136013853,-9.790476602967203 L -75.71416410996022,-9.788070352920386 L -75.71450786007455,-9.786513728161083 L -75.71479098495763,-9.782208976894253 L -75.71408785986813,-9.778710977091805 L -75.71483598480512,-9.77699022819877 L -75.7151191102069,-9.77566797808663 L -75.71591210987003,-9.765673852851819 L -75.71642386001201,-9.762517602910862 L -75.71733785979575,-9.75849997696713 L -75.71889448518027,-9.753730478197042 L -75.72177923479029,-9.74878510190183 L -75.72299998483527,-9.746351603117034 L -75.72351348501473,-9.744412102052024 L -75.72423236010343,-9.741154353078969 L -75.72450386004095,-9.7404453529673 L -75.72454485986373,-9.739999977905768 L -75.72450385985826,-9.739763727105128 L -75.72435161008292,-9.73924810203414 L -75.72429485977312,-9.73875972814011 L -75.72444735997038,-9.738273478066048 L -75.72450198480703,-9.737601603224846 L -75.72431835982621,-9.735734353006762 L -75.72420710987768,-9.733427602160418 L -75.72376173496906,-9.731273477085836 L -75.72347261022759,-9.730124977073046 L -75.72323636014062,-9.728290977950508 L -75.72333598501922,-9.72076372820851 L -75.72298435981799,-9.719164102834952 L -75.72182423508491,-9.716290977084043 L -75.72100786018177,-9.71365235303631 L -75.72094711012204,-9.712738227138857 L -75.7212363600305,-9.711869102818014 L -75.72123048504477,-9.711009727917087 L -75.72094711016439,-9.70947660306598 L -75.72011898522715,-9.70805472795962 L -75.71958598478221,-9.707521477855721 L -75.71905273517064,-9.70604097803141 L -75.71834173481062,-9.704974602931543 L -75.71705073496327,-9.703306602989812 L -75.71658398512278,-9.702464852027447 L -75.71640823502378,-9.701839853205854 L -75.71373823500795,-9.697767603031878 L -75.71147073498497,-9.690771476934515 L -75.71151761009338,-9.688068352774621 L -75.71186135994219,-9.684621102042911 L -75.71454685997873,-9.66849022693981 L -75.71442385994618,-9.664121102793217 L -75.71343160999533,-9.660859352194564 L -75.71249410985348,-9.656437477920178 L -75.71231836008707,-9.655173851844722 L -75.71231048518274,-9.652531227888346 L -75.71294336000614,-9.650124978157805 L -75.71599611008139,-9.641499977903777 L -75.71656836010061,-9.6387481028205 L -75.71661323491213,-9.633349602021667 L -75.71614060999497,-9.629216852999377 L -75.7153847348842,-9.626234353120935 L -75.71508785999072,-9.624335977829674 L -75.7142538598282,-9.622566352036813 L -75.71360160987263,-9.62138085289115 L -75.71324610990939,-9.620611352816297 L -75.71330661016174,-9.619367353106554 L -75.71345510997764,-9.618714853076028 L -75.7134551101957,-9.616994102224965 L -75.7137382351965,-9.615447227023878 L -75.71373823499107,-9.613033226887296 L -75.71379098478695,-9.612572227070132 L -75.71388286009397,-9.61250010309152 L -75.71385160978957,-9.61246285189543 L -75.71309573516481,-9.610564478113872 L -75.7129766098426,-9.609824227909428 L -75.71308973504932,-9.607011728126338 L -75.71267773492798,-9.605628851797178 L -75.71255461021303,-9.603675728093322 L -75.71092973497764,-9.599546853180755 L -75.71028910991242,-9.597419977834079 L -75.70976948506546,-9.596626976929656 L -75.706292985083,-9.593015602139417 L -75.70460548512153,-9.591011727990804 L -75.7039101101887,-9.589972477063043 L -75.70315623481832,-9.588253852981438 L -75.70072261010563,-9.584353476965589 L -75.69997661002452,-9.58256847784429 L -75.69957223487853,-9.581558603015992 L -75.69900786010987,-9.580408227112628 L -75.69834173483525,-9.579621102017143 L -75.69769548485817,-9.579136726797742 L -75.69626173508044,-9.578792977080354 L -75.69521285993193,-9.579056601934383 L -75.69404098501298,-9.579197226790598 L -75.6930722349012,-9.579076227012024 L -75.69254885990256,-9.578894476995913 L -75.69125598513682,-9.578550728072287 L -75.69044923499848,-9.578410103190436 L -75.6886523601217,-9.57824810313764 L -75.68778510997902,-9.577845727062709 L -75.68701760981838,-9.577380853011732 L -75.6853711098887,-9.575033102889847 L -75.6813729849465,-9.571080103168526 L -75.68038861020636,-9.569759728089139 L -75.67957223516186,-9.56815235312871 L -75.67905473512968,-9.567003853100914 L -75.67811523513728,-9.563849602095445 L -75.67758985992674,-9.560060602186525 L -75.67769535978204,-9.554951227067534 L -75.6784354851406,-9.547199228192085 L -75.6781992349197,-9.54421485286798 L -75.67772660981319,-9.541972601875273 L -75.67691798487249,-9.539451227009863 L -75.67527735992383,-9.530962853140977 L -75.67347661008301,-9.526316228207179 L -75.67243161003898,-9.522927727154524 L -75.67201948514844,-9.520748101921697 L -75.67172260978555,-9.517302727797414 L -75.67061523516014,-9.514374976876582 L -75.66924223487547,-9.511386727103513 L -75.66895698501804,-9.510037103150296 L -75.66874798497321,-9.509593726840933 L -75.66819135997531,-9.508826227926136 L -75.66758598494192,-9.507943353072108 L -75.66539848479488,-9.504915976877783 L -75.6637109852195,-9.502050603118164 L -75.66307811000041,-9.501527352895096 L -75.66220311020146,-9.501058602908074 L -75.66125586010446,-9.500628852074158 L -75.66093948521444,-9.500369102051934 L -75.66093948515669,-9.499738228181627 L -75.66102536002296,-9.499078103104807 L -75.66157035987965,-9.498130853180214 L -75.66183010988732,-9.497414103044946 L -75.66188660988576,-9.496695353132566 L -75.66162886007936,-9.496206978193698 L -75.66105473501108,-9.495173852841674 L -75.6608242351088,-9.494427727083405 L -75.66079685998398,-9.493539101807357 L -75.66030873515308,-9.493165978160391 L -75.65956248491489,-9.492906227944388 L -75.65818361006404,-9.492390601878355 L -75.65740236013824,-9.492005851840304 L -75.65583786007761,-9.490281227806747 L -75.65478510981154,-9.487408228177287 L -75.65350385990553,-9.48274410213304 L -75.65268748486312,-9.48056447713077 L -75.65141211020676,-9.47815235201 L -75.64908598497408,-9.474013728086504 L -75.64414261009733,-9.466597601887486 L -75.64106823498446,-9.461601601786299 L -75.63636135988133,-9.455107476900196 L -75.63363085986379,-9.450165978154644 L -75.63316728026996,-9.449106324857723 L -75.63252348493648,-9.44763472681268 L -75.63135348514993,-9.443665976853708 L -75.62989848498404,-9.437111352143745 L -75.62977535991757,-9.434697228121365 L -75.63005861008236,-9.433259727786776 L -75.63005860979604,-9.430781227775697 L -75.62871485980679,-9.42617960202682 L -75.62777736009878,-9.421234352995498 L -75.62771673499572,-9.41928122690058 L -75.62789061022647,-9.418357476916583 L -75.62863861016302,-9.416574228086063 L -75.62915023489398,-9.410939476844192 L -75.62917748675841,-9.410856810534028 L -75.62916997958547,-9.410856823911331 L -75.62836129960783,-9.41085826493088 L -75.62719111614729,-9.411150980376135 L -75.62621517663877,-9.410958958050799 L -75.62514202688055,-9.410960860958824 L -75.62407131064197,-9.412319043262528 L -75.62309606303006,-9.412514521938533 L -75.62192500162826,-9.412322833317717 L -75.62065724753819,-9.412615698802028 L -75.61919488748379,-9.41319953450386 L -75.61743967126426,-9.413686999150741 L -75.61665987815371,-9.414075874347759 L -75.6154883002344,-9.413593532175867 L -75.61392614377598,-9.412918109691077 L -75.61236331093392,-9.41185516956449 L -75.61255587126811,-9.410401668297936 L -75.6122584216995,-9.40768960535155 L -75.61137767406547,-9.406141086187802 L -75.60942668413679,-9.406241336821665 L -75.60757460347884,-9.407116430402425 L -75.60669911198505,-9.408571105901444 L -75.60543185970874,-9.40915454962169 L -75.6045546702959,-9.409640442778596 L -75.60367899193693,-9.41099823380597 L -75.60338883389153,-9.412451900314124 L -75.60270692172327,-9.413034333677786 L -75.60065949925917,-9.413812849287638 L -75.59948794103809,-9.413330452507864 L -75.59812026577288,-9.412267115048621 L -75.59665370982185,-9.410428914660542 L -75.5961639214654,-9.409267205447463 L -75.59440554132641,-9.407913877107546 L -75.59372213410245,-9.407624392916205 L -75.5917698069918,-9.406949523919877 L -75.58952497585693,-9.406372010744974 L -75.58757331665487,-9.406084629770476 L -75.58630538412558,-9.406280494037333 L -75.58454803101341,-9.405508382193716 L -75.5834726168618,-9.404153863988597 L -75.58220209648312,-9.402799663616975 L -75.5796646324709,-9.402222567368085 L -75.57810387444488,-9.40232200434076 L -75.57644603836741,-9.40271222828477 L -75.57449488657898,-9.402715407725736 L -75.57225042346272,-9.402331537416444 L -75.57039603602226,-9.401850143927447 L -75.56805402380633,-9.401466404770986 L -75.56514154843018,-9.401008199026478 L -75.56247326828276,-9.401184700238503 L -75.56042347056439,-9.400509807209744 L -75.55729962252144,-9.39925532522966 L -75.55437090860153,-9.398000508153018 L -75.55212557065249,-9.397035235042779 L -75.5505634431438,-9.396262640673683 L -75.54880697236837,-9.395974736047492 L -75.54695310053563,-9.395783852535033 L -75.54587952704168,-9.39549487552506 L -75.54412230740951,-9.39472255272051 L -75.5413896881991,-9.394048595365803 L -75.53982834472862,-9.393760346130819 L -75.53826685478566,-9.393375211580064 L -75.53670342915865,-9.391730643006667 L -75.5351409103443,-9.390667340166033 L -75.53328410749606,-9.38853880288525 L -75.5308439213286,-9.387670560784613 L -75.5284043334625,-9.387189816779369 L -75.5259644583893,-9.386515298567247 L -75.52401105257468,-9.38496812765925 L -75.52166730549328,-9.383324640881085 L -75.51795856208633,-9.382167534569874 L -75.51542261746084,-9.38246187641198 L -75.51356953911744,-9.38275520903926 L -75.51161890370327,-9.383048673179076 L -75.50966798147311,-9.383148367390277 L -75.50781306054301,-9.382182237799213 L -75.50595927293477,-9.381991133981955 L -75.50293219897901,-9.379960975302595 L -75.49867973366031,-9.37860547655157 L -75.49682623514423,-9.377812478057592 L -75.49439060904342,-9.377355351830658 L -75.493644484833,-9.377011727339948 L -75.49260161017827,-9.376380852964871 L -75.48987498408724,-9.37402535199061 L -75.48912110986038,-9.373679727383376 L -75.48779298361984,-9.37265035242666 L -75.48668748506287,-9.371331977322711 L -75.48523635976835,-9.368683603402985 L -75.48407811034718,-9.367021477724734 L -75.48274223531996,-9.363062478415088 L -75.48256635880074,-9.361732477294652 L -75.48227536002537,-9.361505852660684 L -75.48140623474632,-9.359671853055602 L -75.47653910979011,-9.352894476754614 L -75.47329098493668,-9.348937477363904 L -75.47283198471678,-9.348359226622904 L -75.47132035914603,-9.345259603234013 L -75.47050198512369,-9.344056726904228 L -75.46975785883501,-9.343253852037947 L -75.46766598456958,-9.341990228180066 L -75.46674410996803,-9.34101372699871 L -75.46547073398978,-9.338546853445393 L -75.46505660859907,-9.336593727404477 L -75.46436323457431,-9.335445352056524 L -75.4607167339002,-9.331886728219558 L -75.4591444851759,-9.328775352237358 L -75.45827548528536,-9.327630853404344 L -75.45722111043534,-9.32624260262412 L -75.45625460868604,-9.324999976663946 L -75.45608198483109,-9.323584727358025 L -75.45605073520306,-9.32218560337526 L -75.45618360969269,-9.319421851741936 L -75.4558944847775,-9.318037102992719 L -75.45531448412197,-9.316833976996236 L -75.45513861028758,-9.313734352098493 L -75.45426173519832,-9.310685602020783 L -75.45403323479502,-9.308615227298162 L -75.45321686035061,-9.307414102003122 L -75.45298048516122,-9.303505851821399 L -75.4532089853156,-9.302292977138052 L -75.45361323464658,-9.301550728197697 L -75.45326761038524,-9.300863227008108 L -75.45193560956176,-9.299537103138903 L -75.451644484361,-9.298849601601773 L -75.45164448519154,-9.298044976561243 L -75.45199023412874,-9.297581978073538 L -75.45203679608483,-9.297222299267844 L -75.45196794360777,-9.296343673717729 L -75.45100224144926,-9.296042642567613 L -75.45037906889866,-9.296091051176177 L -75.44956407114836,-9.296092078242282 L -75.44913302667055,-9.296425974962972 L -75.44788673971044,-9.296570406631076 L -75.44716762282849,-9.296571307988984 L -75.44654499175869,-9.297048307767454 L -75.44587405606467,-9.297239634523578 L -75.44525094046287,-9.297335656295331 L -75.4446755252809,-9.297241129332804 L -75.44376452177306,-9.297147018708301 L -75.44256557309342,-9.296815152401336 L -75.44189439638569,-9.29681598373287 L -75.44107987301021,-9.297197967608213 L -75.4404567557794,-9.297293981069856 L -75.43968957654192,-9.29719968253687 L -75.43897004219679,-9.296867213265045 L -75.4382984503373,-9.296534683626248 L -75.43786626947468,-9.295963748608074 L -75.43690685677416,-9.295488702688658 L -75.43609156422639,-9.295251588698363 L -75.43426998131042,-9.29539667501217 L -75.43297580688039,-9.295588735124227 L -75.43144175028146,-9.295638214086523 L -75.43029116373259,-9.295639602432573 L -75.42971604463162,-9.295783161478994 L -75.4289493343299,-9.296069816314798 L -75.42808674027373,-9.296356584526734 L -75.42731910310255,-9.295881282348205 L -75.42664775381189,-9.295739218618792 L -75.42578469802845,-9.295645004426774 L -75.42482524359707,-9.295122303138328 L -75.42386573464819,-9.294551977002243 L -75.42285834494237,-9.294029327032149 L -75.4219948377712,-9.293554126311506 L -75.42103539433475,-9.293031414276072 L -75.41964460031926,-9.292604451000898 L -75.4184940219069,-9.292605800897945 L -75.41753548850772,-9.292845033837011 L -75.41672100147451,-9.293274585186168 L -75.41624238017948,-9.293941854683169 L -75.4156671447322,-9.29399014689011 L -75.41475621007783,-9.293943583693363 L -75.41403782278826,-9.294563506539191 L -75.41322360649673,-9.295231161184972 L -75.41236116716203,-9.295660758479698 L -75.41130696050317,-9.296090574721404 L -75.41058822962702,-9.296424757789737 L -75.40958162754356,-9.296568780725352 L -75.4089112222727,-9.297236261001387 L -75.40828875601522,-9.297903685276367 L -75.40781011234998,-9.298570944263247 L -75.40733146689837,-9.299238202661286 L -75.4070445319552,-9.299857619609156 L -75.40685347986556,-9.300476927057161 L -75.40627850654647,-9.300763315724623 L -75.40565553540455,-9.301002135778276 L -75.40474518490339,-9.301479392257193 L -75.40367045512045,-9.301746977659832 L -75.4022527413498,-9.30195843341653 L -75.40129368135962,-9.30176902400359 L -75.4004780694616,-9.30124609484119 L -75.39975866828689,-9.301008789842967 L -75.39884787760224,-9.301105053539914 L -75.39831986868165,-9.300534175364305 L -75.39745626819916,-9.29996367018299 L -75.39611352000003,-9.299631806532204 L -75.39443582137369,-9.299871776194664 L -75.39314170885461,-9.300158938099798 L -75.39232696093359,-9.30039794641192 L -75.39060205285995,-9.3013046633086 L -75.38921283670982,-9.30230625092537 L -75.38715346627049,-9.30426100873433 L -75.38581217112176,-9.305262531785559 L -75.38475831697508,-9.306073250558029 L -75.38322544360176,-9.307265460498854 L -75.38173983122198,-9.307838522464806 L -75.38049346604112,-9.307982721614621 L -75.37895872294717,-9.307460509268992 L -75.37728092115395,-9.307652777783062 L -75.37665837503317,-9.308320149722306 L -75.37617955446751,-9.308892124204533 L -75.37488574669555,-9.309512578295426 L -75.37339995834861,-9.30994273922164 L -75.37215373229958,-9.310229776792994 L -75.37095464405996,-9.309754801916824 L -75.3700431186806,-9.309184279660712 L -75.36874780075868,-9.308376039712698 L -75.36750053125041,-9.307662990228948 L -75.36601320484408,-9.306616825241349 L -75.3645741259848,-9.305856339287743 L -75.36327981546873,-9.306000527297215 L -75.36222570855426,-9.306620691792943 L -75.36155504471174,-9.307145219779613 L -75.3608358008733,-9.30705070317049 L -75.35968502115674,-9.30690899803949 L -75.3586789936096,-9.307671971403977 L -75.35781616190474,-9.307815705688256 L -75.35676097717288,-9.30738816010961 L -75.35575354541896,-9.30677007355581 L -75.35469870212944,-9.306675879059355 L -75.35340318767044,-9.305629469089297 L -75.35244385249575,-9.305154192732914 L -75.3515326053128,-9.304821733978429 L -75.35055112946156,-9.304830602195409 L -75.34949079824702,-9.304544470841961 L -75.34891202176135,-9.303970692091752 L -75.34842914224646,-9.30291819876976 L -75.3488129043846,-9.301194790469594 L -75.3484264900456,-9.300237926182604 L -75.34717325261175,-9.299760526466741 L -75.34601600812852,-9.298900132705569 L -75.34505197095433,-9.2985181693669 L -75.34428066690452,-9.298136017522665 L -75.34485755103026,-9.296795322783566 L -75.34456742476965,-9.295742636828095 L -75.34302557807132,-9.29574412132763 L -75.3416762762335,-9.295553965721695 L -75.34071206750946,-9.294980541890084 L -75.34061468408953,-9.293927668202969 L -75.34003594052803,-9.293353874467869 L -75.33916828883844,-9.292971802593286 L -75.33781817443219,-9.291920115077119 L -75.33646706216717,-9.289815455799953 L -75.3356960604757,-9.28972045630286 L -75.335020785783,-9.288955295916537 L -75.3340569675077,-9.288764749691438 L -75.33290105670028,-9.289244449452667 L -75.33097441072869,-9.289916309868147 L -75.32769883666481,-9.290780848613736 L -75.32480879239716,-9.291740732298706 L -75.32201492104804,-9.292509056729614 L -75.32066607654247,-9.292797443783513 L -75.31902865357705,-9.29366043007235 L -75.31797010604475,-9.295288689326071 z" /></g></svg>